<svg width="150" height="150" viewBox="0 0 150 150" fill="none" xmlns="http://www.w3.org/2000/svg">
<rect x="46.3334" y="30" width="65" height="65" rx="7" fill="#F19292" fill-opacity="0.38"/>
<rect x="61.3334" y="55" width="65" height="65" rx="7" fill="#66FFF6" fill-opacity="0.38"/>
<rect x="24.6667" y="38.3333" width="65" height="65" rx="7" fill="#F3FF66" fill-opacity="0.38"/>
<path d="M108.07 82.9327L107.124 80.9322C107.129 80.8565 107.133 80.7804 107.133 80.704C107.133 78.4363 104.824 76.3463 100.939 74.6729V76.0643C100.56 75.9108 100.166 75.7614 99.7548 75.6169V74.9682C94.203 72.9234 85.9381 71.626 76.7059 71.626C68.6397 71.626 61.3112 72.6164 55.8856 74.2303V76.49H55.8855V73.755C50.327 75.559 46.8808 78.0651 46.8808 80.8362C46.8808 81.273 46.967 81.7032 47.1328 82.1252L46.5666 83.1546C46.5666 83.1546 46.1129 83.7555 46.9117 85.0235C47.6162 86.1417 51.1455 90.5183 53.0081 92.8103C53.8082 93.9853 54.3509 94.709 54.3983 94.639C54.4731 94.5282 53.9008 92.3222 52.3118 89.8052C51.5703 88.4536 50.685 86.6626 50.1534 85.3397C51.6372 86.2989 60.3548 90.782 78.1366 90.7638C96.3095 90.7452 104.387 84.9357 105.274 84.1448C104.964 85.4159 103.906 87.9874 103.061 89.7958C101.674 92.3823 101.172 94.6341 101.236 94.7454C101.278 94.8157 101.751 94.0702 102.449 92.862C104.073 90.4986 107.15 85.9869 107.765 84.8376C108.462 83.5348 108.07 82.9327 108.07 82.9327Z" fill="#A52B00"/>
<path d="M113.56 82.9216L107.345 78.2459C107.286 78.0379 107.228 77.8298 107.168 77.6234L109.209 74.6031C109.418 74.2959 109.46 73.8966 109.324 73.5462C109.189 73.1976 108.892 72.9477 108.542 72.8865L105.09 72.2882C104.956 72.0094 104.816 71.7349 104.675 71.4626L106.126 68.0716C106.275 67.7262 106.244 67.3248 106.046 67.0113C105.848 66.6963 105.514 66.5123 105.157 66.5266L101.654 66.6566C101.473 66.4154 101.288 66.1764 101.1 65.9417L101.906 62.3071C101.987 61.9382 101.884 61.5517 101.632 61.2836C101.382 61.0165 101.018 60.9058 100.673 60.9925L97.2603 61.8492C97.0394 61.6498 96.8147 61.453 96.5876 61.26L96.7103 57.5287C96.7235 57.151 96.5511 56.7921 96.255 56.5824C95.9592 56.3715 95.5837 56.3398 95.2601 56.4965L92.0768 58.0422C91.8204 57.8919 91.5626 57.7432 91.3019 57.5992L90.7394 53.9223C90.6823 53.5498 90.4477 53.2334 90.1191 53.0889C89.7913 52.9435 89.416 52.9906 89.1283 53.2118L86.2902 55.3866C86.0106 55.2918 85.7299 55.201 85.4458 55.114L84.2225 51.6272C84.0981 51.2718 83.8112 51.0107 83.4614 50.9373C83.1128 50.8646 82.7542 50.9878 82.5125 51.2637L80.1234 53.9932C79.8347 53.9594 79.5455 53.9284 79.2558 53.9027L77.4111 50.7286C77.2243 50.4072 76.8943 50.2115 76.5385 50.2115C76.1838 50.2115 75.8531 50.4072 75.6676 50.7286L73.8225 53.9027C73.5326 53.9284 73.2422 53.9594 72.9539 53.9932L70.5648 51.2637C70.3228 50.9878 69.9629 50.8646 69.6153 50.9373C69.2659 51.0117 68.9786 51.2718 68.8549 51.6272L67.6306 55.114C67.347 55.201 67.0662 55.2924 66.7862 55.3866L63.949 53.2118C63.6605 52.9898 63.2848 52.9429 62.9566 53.0889C62.6291 53.2334 62.3936 53.5498 62.3368 53.9223L61.7739 57.5992C61.5137 57.7432 61.2558 57.8911 60.9988 58.0422L57.8158 56.4965C57.4925 56.3392 57.1151 56.3715 56.8206 56.5824C56.5251 56.7921 56.3522 57.151 56.3655 57.5287L56.4879 61.26C56.2612 61.453 56.037 61.6498 55.8149 61.8492L52.4032 60.9925C52.0567 60.9066 51.6933 61.0165 51.4424 61.2836C51.1901 61.5517 51.0879 61.9382 51.169 62.3071L51.9724 65.9417C51.7861 66.1773 51.6017 66.4154 51.4208 66.6566L47.9174 66.5266C47.5639 66.5158 47.2264 66.6963 47.0289 67.0113C46.8309 67.3248 46.8009 67.7262 46.9483 68.0716L48.3996 71.4626C48.2587 71.7349 48.1187 72.0094 47.9838 72.2882L44.5322 72.8865C44.1813 72.9468 43.8858 73.1966 43.7493 73.5462C43.6139 73.8966 43.6579 74.2959 43.8648 74.6031L45.9066 77.6234C45.8909 77.6768 45.8763 77.7306 45.8606 77.7841L40.0878 84.0469C40.0878 84.0469 39.2029 84.755 40.4909 86.4192C41.6268 87.8873 47.4588 93.7069 50.5388 96.7556C51.8396 98.3034 52.7309 99.2619 52.824 99.179C52.9709 99.0474 52.1995 96.2313 49.6372 92.9271C47.662 89.9626 45.0985 85.4032 45.6996 84.8777C45.6996 84.8777 46.3834 83.9912 47.7553 83.3531C47.8055 83.3941 47.7034 83.3126 47.7553 83.3531C47.7553 83.3531 76.7069 96.9924 103.562 83.5838C106.63 83.0218 108.487 84.7002 108.487 84.7002C109.128 85.0794 107.469 89.7678 106.105 92.8712C104.251 96.3952 103.979 99.145 104.136 99.2403C104.235 99.3009 104.91 98.2521 105.873 96.583C108.248 93.2027 112.738 86.7588 113.56 85.1935C114.492 83.419 113.56 82.9216 113.56 82.9216Z" fill="#F74C00"/>
<path d="M100.902 81.1716C100.902 81.1716 105.068 80.9743 110.539 75.2946L111.315 73.5363C111.315 73.5363 102.822 64.9085 116.024 58.953C116.024 58.953 114.868 60.882 115.207 68.3348C115.207 68.3348 119.188 66.9229 120.355 60.3396C120.355 60.3396 126.161 68.1575 114.049 75.4898C114.049 75.4898 108.367 84.7929 100.356 83.9018L100.902 81.1716Z" fill="#F74C00"/>
<path d="M82.0314 75.8135C82.0314 75.8135 84.9247 72.5781 87.818 75.8135C87.818 75.8135 90.0914 80.1277 87.818 82.2845C87.818 82.2845 84.0982 85.3043 82.0314 82.2845C82.0314 82.2845 79.5516 79.9118 82.0314 75.8135Z" fill="black"/>
<path d="M85.3813 77.0138C85.3813 78.2735 84.6542 79.295 83.7573 79.295C82.8605 79.295 82.1334 78.2735 82.1334 77.0138C82.1334 75.7538 82.8605 74.7324 83.7573 74.7324C84.6542 74.7324 85.3813 75.7538 85.3813 77.0138Z" fill="white"/>
<path d="M69.1183 74.9302C69.1183 74.9302 74.0811 72.686 75.4357 77.6951C75.4357 77.6951 76.8546 83.5335 71.36 83.863C71.36 83.863 64.3536 82.4848 69.1183 74.9302Z" fill="black"/>
<path d="M71.6108 77.0965C71.6108 78.3956 70.861 79.4492 69.936 79.4492C69.0113 79.4492 68.2613 78.3956 68.2613 77.0965C68.2613 75.797 69.0113 74.7436 69.936 74.7436C70.861 74.7436 71.6108 75.797 71.6108 77.0965Z" fill="white"/>
<path d="M75.4765 85.9042L81.8055 85.3855C81.8055 85.3855 81.591 86.426 80.7653 87.207C80.7653 87.207 78.5884 89.6446 76.0909 87.0044C76.0909 87.0044 75.6823 86.5541 75.4765 85.9042Z" fill="black"/>
<path d="M50.134 79.9215C50.0818 79.9215 50.0305 79.9254 49.9795 79.9296C47.9245 79.4519 42.1482 77.9148 40.6215 75.4206C40.6215 75.4206 48.3942 66.3908 36.2458 60.619L37.6602 70.6093C37.6602 70.6093 33.9152 68.0534 33.107 62.5016C33.107 62.5016 23.9872 69.2611 37.1321 75.7395C37.1321 75.7395 38.3243 80.3145 49.7711 83.9647L49.7795 83.9299C49.8947 83.9517 50.0127 83.9647 50.134 83.9647C51.2156 83.9647 52.0926 83.0598 52.0926 81.943C52.0926 80.8266 51.2156 79.9215 50.134 79.9215Z" fill="#F74C00"/>
<rect x="50" y="72.2635" width="23" height="5" rx="2.5" transform="rotate(-45 50 72.2635)" fill="#FFC9B3"/>
<rect x="54.2426" y="68.0208" width="11" height="5" transform="rotate(-45 54.2426 68.0208)" fill="#FFEDD8"/>
<mask id="mask0_1_14" style="mask-type:alpha" maskUnits="userSpaceOnUse" x="54" y="60" width="12" height="12">
<rect x="54.2426" y="68.0208" width="11" height="5" transform="rotate(-45 54.2426 68.0208)" fill="#FFEDD8"/>
</mask>
<g mask="url(#mask0_1_14)">
<g filter="url(#filter0_d_1_14)">
<line x1="53.3633" y1="67.3149" x2="61.8017" y2="72.1868" stroke="white" stroke-width="0.25"/>
<line x1="53.8633" y1="66.4489" x2="62.3017" y2="71.3208" stroke="white" stroke-width="0.25"/>
<line x1="52.8633" y1="68.1809" x2="61.3017" y2="73.0528" stroke="white" stroke-width="0.25"/>
<line x1="54.3633" y1="65.5828" x2="62.8017" y2="70.4547" stroke="white" stroke-width="0.25"/>
<line x1="54.8633" y1="64.7168" x2="63.3017" y2="69.5887" stroke="white" stroke-width="0.25"/>
<line x1="55.3633" y1="63.8508" x2="63.8017" y2="68.7227" stroke="white" stroke-width="0.25"/>
<line x1="55.8633" y1="62.9847" x2="64.3017" y2="67.8567" stroke="white" stroke-width="0.25"/>
<line x1="56.3633" y1="62.1187" x2="64.8017" y2="66.9906" stroke="white" stroke-width="0.25"/>
<line x1="56.8633" y1="61.2527" x2="65.3017" y2="66.1246" stroke="white" stroke-width="0.25"/>
<line x1="57.3633" y1="60.3867" x2="65.8017" y2="65.2586" stroke="white" stroke-width="0.25"/>
<line x1="57.8633" y1="59.5206" x2="66.3017" y2="64.3926" stroke="white" stroke-width="0.25"/>
<line x1="58.3633" y1="58.6546" x2="66.8017" y2="63.5265" stroke="white" stroke-width="0.25"/>
</g>
</g>
<defs>
<filter id="filter0_d_1_14" x="37.8008" y="43.5464" width="44.0634" height="44.6147" filterUnits="userSpaceOnUse" color-interpolation-filters="sRGB">
<feFlood flood-opacity="0" result="BackgroundImageFix"/>
<feColorMatrix in="SourceAlpha" type="matrix" values="0 0 0 0 0 0 0 0 0 0 0 0 0 0 0 0 0 0 127 0" result="hardAlpha"/>
<feOffset/>
<feGaussianBlur stdDeviation="7.5"/>
<feComposite in2="hardAlpha" operator="out"/>
<feColorMatrix type="matrix" values="0 0 0 0 0 0 0 0 0 0 0 0 0 0 0 0 0 0 0.25 0"/>
<feBlend mode="normal" in2="BackgroundImageFix" result="effect1_dropShadow_1_14"/>
<feBlend mode="normal" in="SourceGraphic" in2="effect1_dropShadow_1_14" result="shape"/>
</filter>
</defs>
</svg>
